#Comment line ignore any data following # character 
#Hierarchical Translation and Rotation (.htr) file 
[Header]	
#Header keywords are followed by a single value 
FileType HTR		#Single word string
DataType HTRS		#Translation followed by rotation and scale data
FileVersion 1		#integer
NumSegments 64		#integer
NumFrames 3		#integer
DataFrameRate 30		#integer, data frame rate in this file
EulerRotationOrder ZYX
CalibrationUnits mm
RotationUnits Degrees
GlobalAxisofGravity Y
BoneLengthAxis Y
ScaleFactor 1.00
[SegmentNames&Hierarchy]
#CHILD	PARENT
Pinger_Root GLOBAL
Pelvis Pinger_Root
L_Hip Pelvis
R_Hip Pelvis
Rear_Leg01 Pelvis
Spine1 Pelvis
L_Leg01 L_Hip
L_Leg02 L_Leg01
L_Leg03 L_Leg02
L_Foot L_Leg03
L_Toe1_01 L_Foot
L_Toe2_01 L_Foot
L_Toe3_01 L_Foot
planeAlignerLeft L_Foot
L_Toe1_02 L_Toe1_01
L_Toe1_03 L_Toe1_02
L_Toe2_02 L_Toe2_01
L_Toe2_03 L_Toe2_02
L_Toe3_02 L_Toe3_01
L_Toe3_03 L_Toe3_02
planeLockWeightLeft planeAlignerLeft
R_Leg01 R_Hip
R_Leg02 R_Leg01
R_Leg03 R_Leg02
R_Foot R_Leg03
planeAlignerRight R_Foot
R_Toe1_01 R_Foot
R_Toe2_01 R_Foot
R_Toe3_01 R_Foot
planeLockWeightRight planeAlignerRight
R_Toe1_02 R_Toe1_01
R_Toe1_03 R_Toe1_02
R_Toe2_02 R_Toe2_01
R_Toe2_03 R_Toe2_02
R_Toe3_02 R_Toe3_01
R_Toe3_03 R_Toe3_02
Rear_Leg02 Rear_Leg01
Rear_Leg03 Rear_Leg02
Rear_Leg04 Rear_Leg03
Rear_Foot Rear_Leg04
planeAlignerCenter Rear_Foot
Rear_Toe1_01 Rear_Foot
Rear_Toe2_01 Rear_Foot
Rear_Toe3_01 Rear_Foot
planeLockWeightCenter planeAlignerCenter
Rear_Toe1_02 Rear_Toe1_01
Rear_Toe1_03 Rear_Toe1_02
Rear_Toe2_02 Rear_Toe2_01
Rear_Toe2_03 Rear_Toe2_02
Rear_Toe3_02 Rear_Toe3_01
Rear_Toe3_03 Rear_Toe3_02
Back_Bone Spine1
Head Spine1
Motor_Bone Back_Bone
Ping_Mechanism Back_Bone
BN_LookIK Head
bottomMouth Head
L_Mouth01 Head
L_mouthFront Head
mouthGun Head
R_Mouth01 Head
R_mouthFront Head
TopMouth Head
weapon_bone Head
[BasePosition]
#SegmentName Tx, Ty, Tz, Rx, Ry, Rz, BoneLength
Pinger_Root 0.000000 0.000000 0.000000 -90.000000 0.000000 0.000000 10.000000 
Pelvis 0.000000 0.000000 0.000000 0.000000 0.000000 0.000000 10.000000 
L_Hip 0.000000 0.000000 0.000000 0.000000 0.000000 0.000000 10.000000 
R_Hip 0.000000 0.000000 0.000000 0.000000 0.000000 0.000000 10.000000 
Rear_Leg01 0.000000 0.000000 0.000000 0.000000 0.000000 0.000000 10.000000 
Spine1 0.000000 0.000000 0.000000 0.000000 0.000000 0.000000 10.000000 
L_Leg01 0.000000 0.000000 0.000000 0.000000 0.000000 0.000000 10.000000 
L_Leg02 0.000000 0.000000 0.000000 0.000000 0.000000 0.000000 10.000000 
L_Leg03 0.000000 0.000000 0.000000 0.000000 0.000000 0.000000 10.000000 
L_Foot 0.000000 0.000000 0.000000 0.000000 0.000000 0.000000 10.000000 
L_Toe1_01 0.000000 0.000000 0.000000 0.000000 0.000000 0.000000 10.000000 
L_Toe2_01 0.000000 0.000000 0.000000 0.000000 0.000000 0.000000 10.000000 
L_Toe3_01 0.000000 0.000000 0.000000 0.000000 0.000000 0.000000 10.000000 
planeAlignerLeft 0.000000 0.000000 0.000000 0.000000 0.000000 0.000000 10.000000 
L_Toe1_02 0.000000 0.000000 0.000000 0.000000 0.000000 0.000000 10.000000 
L_Toe1_03 0.000000 0.000000 0.000000 0.000000 0.000000 0.000000 10.000000 
L_Toe2_02 0.000000 0.000000 0.000000 0.000000 0.000000 0.000000 10.000000 
L_Toe2_03 0.000000 0.000000 0.000000 0.000000 0.000000 0.000000 10.000000 
L_Toe3_02 0.000000 0.000000 0.000000 0.000000 0.000000 0.000000 10.000000 
L_Toe3_03 0.000000 0.000000 0.000000 0.000000 0.000000 0.000000 10.000000 
planeLockWeightLeft 0.000000 0.000000 0.000000 0.000000 0.000000 0.000000 10.000000 
R_Leg01 0.000000 0.000000 0.000000 0.000000 0.000000 0.000000 10.000000 
R_Leg02 0.000000 0.000000 0.000000 0.000000 0.000000 0.000000 10.000000 
R_Leg03 0.000000 0.000000 0.000000 0.000000 0.000000 0.000000 10.000000 
R_Foot 0.000000 0.000000 0.000000 0.000000 0.000000 0.000000 10.000000 
planeAlignerRight 0.000000 0.000000 0.000000 0.000000 0.000000 0.000000 10.000000 
R_Toe1_01 0.000000 0.000000 0.000000 0.000000 0.000000 0.000000 10.000000 
R_Toe2_01 0.000000 0.000000 0.000000 0.000000 0.000000 0.000000 10.000000 
R_Toe3_01 0.000000 0.000000 0.000000 0.000000 0.000000 0.000000 10.000000 
planeLockWeightRight 0.000000 0.000000 0.000000 0.000000 0.000000 0.000000 10.000000 
R_Toe1_02 0.000000 0.000000 0.000000 0.000000 0.000000 0.000000 10.000000 
R_Toe1_03 0.000000 0.000000 0.000000 0.000000 0.000000 0.000000 10.000000 
R_Toe2_02 0.000000 0.000000 0.000000 0.000000 0.000000 0.000000 10.000000 
R_Toe2_03 0.000000 0.000000 0.000000 0.000000 0.000000 0.000000 10.000000 
R_Toe3_02 0.000000 0.000000 0.000000 0.000000 0.000000 0.000000 10.000000 
R_Toe3_03 0.000000 0.000000 0.000000 0.000000 0.000000 0.000000 10.000000 
Rear_Leg02 0.000000 0.000000 0.000000 0.000000 0.000000 0.000000 10.000000 
Rear_Leg03 0.000000 0.000000 0.000000 0.000000 0.000000 0.000000 10.000000 
Rear_Leg04 0.000000 0.000000 0.000000 0.000000 0.000000 0.000000 10.000000 
Rear_Foot 0.000000 0.000000 0.000000 0.000000 0.000000 0.000000 10.000000 
planeAlignerCenter 0.000000 0.000000 0.000000 0.000000 0.000000 0.000000 10.000000 
Rear_Toe1_01 0.000000 0.000000 0.000000 0.000000 0.000000 0.000000 10.000000 
Rear_Toe2_01 0.000000 0.000000 0.000000 0.000000 0.000000 0.000000 10.000000 
Rear_Toe3_01 0.000000 0.000000 0.000000 0.000000 0.000000 0.000000 10.000000 
planeLockWeightCenter 0.000000 0.000000 0.000000 0.000000 0.000000 0.000000 10.000000 
Rear_Toe1_02 0.000000 0.000000 0.000000 0.000000 0.000000 0.000000 10.000000 
Rear_Toe1_03 0.000000 0.000000 0.000000 0.000000 0.000000 0.000000 10.000000 
Rear_Toe2_02 0.000000 0.000000 0.000000 0.000000 0.000000 0.000000 10.000000 
Rear_Toe2_03 0.000000 0.000000 0.000000 0.000000 0.000000 0.000000 10.000000 
Rear_Toe3_02 0.000000 0.000000 0.000000 0.000000 0.000000 0.000000 10.000000 
Rear_Toe3_03 0.000000 0.000000 0.000000 0.000000 0.000000 0.000000 10.000000 
Back_Bone 0.000000 0.000000 0.000000 0.000000 0.000000 0.000000 10.000000 
Head 0.000000 0.000000 0.000000 0.000000 0.000000 0.000000 10.000000 
Motor_Bone 0.000000 0.000000 0.000000 0.000000 0.000000 0.000000 10.000000 
Ping_Mechanism 0.000000 0.000000 0.000000 0.000000 0.000000 0.000000 10.000000 
BN_LookIK 0.000000 0.000000 0.000000 0.000000 0.000000 0.000000 10.000000 
bottomMouth 0.000000 0.000000 0.000000 0.000000 0.000000 0.000000 10.000000 
L_Mouth01 0.000000 0.000000 0.000000 0.000000 0.000000 0.000000 10.000000 
L_mouthFront 0.000000 0.000000 0.000000 0.000000 0.000000 0.000000 10.000000 
mouthGun 0.000000 0.000000 0.000000 0.000000 0.000000 0.000000 10.000000 
R_Mouth01 0.000000 0.000000 0.000000 0.000000 0.000000 0.000000 10.000000 
R_mouthFront 0.000000 0.000000 0.000000 0.000000 0.000000 0.000000 10.000000 
TopMouth 0.000000 0.000000 0.000000 0.000000 0.000000 0.000000 10.000000 
weapon_bone 0.000000 0.000000 0.000000 0.000000 0.000000 0.000000 10.000000 
#Beginning of Data. Separated by tabs
#Fr	Tx	Ty	Tz	Rx	Ry	Rz	SF
[Pinger_Root]
18 0.000000 0.000000 0.000000 -0.000075 -0.000000 -0.000020 0.000000
19 0.000000 0.000000 0.000000 -0.000075 -0.000000 -0.000020 0.000000
20 0.000000 0.000000 0.000000 -0.000075 -0.000000 -0.000020 0.000000
[Pelvis]
18 -488.062103 -609.283020 4277.713379 -93.645866 -60.707638 103.741173 4348.363281
19 -624.924561 -673.066101 4432.068848 -98.277649 -67.664116 107.471169 4526.232422
20 -761.945557 -727.872131 4597.027832 -107.366196 -74.648872 115.561028 4716.250977
[L_Hip]
18 5.766392 125.831482 872.656799 -160.928116 -45.745663 69.703819 881.701050
19 5.766392 125.831482 872.656799 -173.293213 -48.389065 86.531898 881.701050
20 5.766392 125.831482 872.656799 173.412750 -48.402588 104.248390 881.701050
[R_Hip]
18 5.765438 125.836372 -872.654907 31.463409 43.215176 135.312408 881.699829
19 5.765438 125.836372 -872.654907 33.581520 45.300640 132.068939 881.699829
20 5.765438 125.836372 -872.654907 35.605782 47.468750 128.812759 881.699829
[Rear_Leg01]
18 -192.298416 -925.602966 -0.001907 -154.042847 -21.922672 -162.754196 945.367432
19 -192.298416 -925.602966 -0.001907 -154.425217 -20.583078 -156.439850 945.367432
20 -192.298416 -925.602966 -0.001907 -155.101761 -19.094015 -149.576904 945.367432
[Spine1]
18 290.604584 5.007505 0.000477 -13.408295 10.634895 12.513766 290.647736
19 290.604584 5.007505 0.000477 -13.648175 10.278783 16.451250 290.647736
20 290.604584 5.007505 0.000477 -13.733716 9.535203 20.156828 290.647736
[L_Leg01]
18 761.932007 -0.002384 -0.069261 4.093444 -51.212765 -10.500839 761.932068
19 761.932007 -0.002384 -0.069261 19.035692 -54.354343 -14.495379 761.932068
20 761.932007 -0.002384 -0.069261 36.195335 -54.429443 -21.669062 761.932068
[L_Leg02]
18 1441.140503 -0.000954 -0.000715 -3.029659 1.161071 -93.385674 1441.140503
19 1441.140503 -0.000954 -0.000715 -5.850598 2.439715 -89.315308 1441.140503
20 1441.140503 -0.000954 -0.000715 -9.341179 4.178823 -84.975174 1441.140503
[L_Leg03]
18 1686.963989 -0.000715 -0.000954 0.036604 -0.010090 99.580040 1686.963989
19 1686.963989 -0.000715 -0.000954 0.045363 -0.011875 97.841301 1686.963989
20 1686.963989 -0.000715 -0.000954 0.054171 -0.013393 96.102554 1686.963989
[L_Foot]
18 3041.570068 -30.715107 11.297464 -16.485815 20.608501 32.391796 3041.746094
19 3041.570068 -30.715107 11.297464 -21.437380 24.266483 30.543913 3041.746094
20 3041.570068 -30.715107 11.297464 -26.082241 27.335566 28.494574 3041.746094
[L_Toe1_01]
18 -188.216690 -224.732346 -21.137953 68.289757 -8.549475 -167.116638 293.899567
19 -188.216690 -224.732346 -21.137953 64.734062 -6.054441 -165.170151 293.899567
20 -188.216690 -224.732346 -21.137953 62.133331 -3.781373 -163.394791 293.899567
[L_Toe2_01]
18 200.746536 -219.926590 148.838394 -51.152531 -1.469116 -58.939568 332.896027
19 200.746536 -219.926590 148.838394 -49.580292 2.584067 -59.597675 332.896027
20 200.746536 -219.926590 148.838394 -48.395554 5.444877 -59.833817 332.896027
[L_Toe3_01]
18 188.832520 -219.859131 -191.078659 -83.462440 29.887367 -57.602940 347.140900
19 188.832520 -219.859131 -191.078659 -82.576523 34.260880 -58.501820 347.140900
20 188.832520 -219.859131 -191.078659 -82.300865 37.577797 -59.678669 347.140900
[planeAlignerLeft]
18 87.628174 -698.796204 31.395874 -10.843902 -77.881371 -89.882713 704.968506
19 82.644958 -721.617249 -26.939432 -10.837542 -74.228226 -89.903580 726.833801
20 77.890923 -740.579346 -74.949570 -10.774454 -71.530212 -89.956367 748.426514
[L_Toe1_02]
18 413.761139 0.000477 0.000000 0.001386 -25.736444 0.001386 413.761139
19 413.761139 0.000477 0.000000 0.001385 -25.826920 0.001385 413.761139
20 413.761139 0.000477 0.000000 0.001385 -25.917387 0.001385 413.761139
[L_Toe1_03]
18 464.317322 0.000358 -0.000089 0.004490 59.693764 0.004490 464.317322
19 464.317322 0.000358 -0.000089 0.004245 57.899910 0.004245 464.317322
20 464.317322 0.000358 -0.000089 0.003976 55.662376 0.003976 464.317322
[L_Toe2_02]
18 342.235809 -0.000477 0.000238 -0.002472 -50.008720 -0.002472 342.235809
19 342.235809 -0.000477 0.000238 -0.002500 -46.577785 -0.002500 342.235809
20 342.235809 -0.000477 0.000238 -0.002537 -42.606007 -0.002537 342.235809
[L_Toe2_03]
18 420.210846 -0.000715 0.000000 0.006979 47.320087 -0.000529 420.210846
19 420.210846 -0.000715 0.000000 0.006766 43.220692 -0.000853 420.210846
20 420.210846 -0.000715 0.000000 0.006592 38.758892 -0.001164 420.210846
[L_Toe3_02]
18 329.270111 0.000954 0.000000 0.001177 -81.238464 0.001177 329.270111
19 329.270111 0.000954 0.000000 0.001178 -80.674873 0.001178 329.270111
20 329.270111 0.000954 0.000000 0.001178 -79.993782 0.001178 329.270111
[L_Toe3_03]
18 439.137451 -0.001907 0.000954 -179.997345 75.076881 -179.993820 439.137451
19 439.137451 -0.001907 0.000954 -179.996307 77.887779 -179.992798 439.137451
20 439.137451 -0.001907 0.000954 -179.994659 80.698677 -179.991150 439.137451
[planeLockWeightLeft]
18 1000.000244 -0.000236 -0.000155 -0.011826 -0.004376 0.005620 1000.000244
19 1000.000244 -0.000250 -0.000154 -0.011826 -0.004376 0.005620 1000.000244
20 1000.000244 -0.000264 -0.000154 -0.011826 -0.004376 0.005620 1000.000244
[R_Leg01]
18 761.455627 -0.001907 -0.000358 174.242096 -18.772516 -9.550071 761.455688
19 761.455627 -0.001907 -0.000358 163.043518 -19.370266 8.836729 761.455688
20 761.455627 -0.001907 -0.000358 150.312210 -15.698442 18.203798 761.455688
[R_Leg02]
18 1441.140625 0.000000 -0.000238 8.855284 1.231984 -103.013123 1441.140625
19 1441.140625 0.000000 -0.000238 12.780912 1.535311 -93.355263 1441.140625
20 1441.140625 0.000000 -0.000238 12.399852 3.148088 -101.645111 1441.140625
[R_Leg03]
18 1686.963989 0.000954 0.001431 0.080187 -0.041707 131.630219 1686.963989
19 1686.963989 0.000954 0.001431 0.073995 -0.038567 130.614349 1686.963989
20 1686.963989 0.000954 0.001431 0.099050 -0.058645 137.294769 1686.963989
[R_Foot]
18 3041.560059 -30.531288 -11.204481 3.764063 -13.199731 23.699266 3041.734131
19 3041.560059 -30.531288 -11.204481 0.639815 -11.383839 22.899851 3041.734131
20 3041.560059 -30.531288 -11.204481 -0.214464 -13.949029 24.269144 3041.734131
[planeAlignerRight]
18 -116.283569 -988.090027 -381.753784 -36.577137 -71.339012 -64.343925 1065.635864
19 -81.317200 -988.540161 -369.233032 -36.577137 -71.339012 -64.343925 1058.374756
20 -46.845699 -973.873230 -351.678894 -36.577137 -71.339012 -64.343925 1036.485229
[R_Toe1_01]
18 -188.383347 -224.864899 21.052242 77.453262 7.176696 -143.673294 294.101532
19 -188.383347 -224.864899 21.052242 76.894180 8.250187 -145.733154 294.101532
20 -188.383347 -224.864899 21.052242 76.180244 9.646482 -146.676620 294.101532
[R_Toe2_01]
18 200.637817 -220.002121 -148.787384 -110.815384 24.186531 -81.888329 332.857574
19 200.637817 -220.002121 -148.787384 -114.153038 22.037449 -96.279099 332.857574
20 200.637817 -220.002121 -148.787384 -115.408821 20.437103 -107.892555 332.857574
[R_Toe3_01]
18 188.606735 -220.092957 191.126343 -64.146309 7.299406 -88.998566 347.192566
19 188.606735 -220.092957 191.126343 -72.941833 12.993260 -101.011055 347.192566
20 188.606735 -220.092957 191.126343 -82.102638 17.499039 -111.052200 347.192566
[planeLockWeightRight]
18 0.000000 0.000000 0.000000 -0.011823 -0.004379 -0.000027 0.000000
19 0.000000 0.000000 0.000000 -0.011823 -0.004379 -0.000027 0.000000
20 0.000000 0.000000 0.000000 -0.011823 -0.004379 -0.000027 0.000000
[R_Toe1_02]
18 413.762085 0.000477 -0.000119 0.001386 -25.754128 0.001386 413.762085
19 413.762085 0.000477 -0.000119 0.001391 -25.044369 0.001391 413.762085
20 413.762085 0.000477 -0.000119 0.001411 -22.625744 0.001411 413.762085
[R_Toe1_03]
18 464.317810 0.000000 0.001088 0.003213 47.158161 0.003213 464.317810
19 464.317810 0.000000 0.001088 0.005845 66.833694 0.005845 464.317810
20 464.317810 0.000000 0.001088 0.014345 80.614334 0.014345 464.317810
[R_Toe2_02]
18 342.234741 -0.000954 0.000238 0.001278 -43.371429 0.001278 342.234741
19 342.234741 -0.000954 0.000238 0.001206 -63.269131 0.001206 342.234741
20 342.234741 -0.000954 0.000238 0.001190 -71.223526 0.001190 342.234741
[R_Toe2_03]
18 420.210846 0.000715 -0.000268 -0.003275 39.194336 0.000596 420.210846
19 420.210846 0.000715 -0.000268 -0.004578 66.236267 -0.001005 420.210846
20 420.210846 0.000715 -0.000268 0.017996 82.521599 0.017996 420.210846
[R_Toe3_02]
18 329.270355 -0.000477 -0.000954 -0.002512 -45.235039 -0.002512 329.270355
19 329.270355 -0.000477 -0.000954 -0.002392 -62.498150 -0.002392 329.270355
20 329.270355 -0.000477 -0.000954 0.001192 -69.770081 0.001192 329.270355
[R_Toe3_03]
18 439.137939 0.000238 0.001431 0.006588 38.622620 -0.001173 439.137939
19 439.137939 0.000238 0.001431 0.004610 60.505066 0.004610 439.137939
20 439.137939 0.000238 0.001431 0.007941 73.001747 0.007941 439.137939
[Rear_Leg02]
18 1162.777710 -0.029802 0.005960 0.507666 -2.046828 -84.312492 1162.777710
19 1162.777710 -0.029802 0.005960 1.265935 -4.990269 -84.472534 1162.777710
20 1162.777710 -0.029802 0.005960 1.924592 -8.014933 -83.748344 1162.777710
[Rear_Leg03]
18 607.192505 -0.013351 -0.073195 0.010598 -0.004882 65.823448 607.192505
19 607.192505 -0.013351 -0.073195 0.010596 -0.004887 65.870583 607.192505
20 607.192505 -0.013351 -0.073195 0.010609 -0.004858 65.564430 607.192505
[Rear_Leg04]
18 995.874512 -0.020504 -0.011921 -0.043429 -0.018328 61.302559 995.874573
19 995.874512 -0.020504 -0.011921 -0.043443 -0.018293 61.394577 995.874573
20 995.874512 -0.020504 -0.011921 -0.043343 -0.018530 60.768658 995.874573
[Rear_Foot]
18 3096.176270 -0.067472 -0.041425 -18.886965 83.657486 155.230865 3096.176270
19 3096.176270 -0.067472 -0.041425 -37.582493 81.780182 134.850403 3096.176270
20 3096.176270 -0.067472 -0.041425 -47.998138 79.145889 123.159294 3096.176270
[planeAlignerCenter]
18 45.496750 -104.671013 -697.297791 12.240773 -0.001473 179.998184 706.576416
19 51.846531 -111.622604 -666.226257 12.240772 -0.001473 179.998184 677.499146
20 58.194271 -118.146362 -637.784973 12.240770 -0.001473 179.998184 651.240967
[Rear_Toe1_01]
18 0.653352 83.966492 -371.173737 -1.392740 34.079056 87.537498 380.553192
19 0.653352 83.966492 -371.173737 -1.537573 31.691856 87.213898 380.553192
20 0.653352 83.966492 -371.173737 -1.717943 29.439766 86.825546 380.553192
[Rear_Toe2_01]
18 178.200760 -294.826019 -362.060547 -7.689128 27.478785 -66.159607 499.765686
19 178.200760 -294.826019 -362.060547 -7.845213 25.689548 -66.038986 499.765686
20 178.200760 -294.826019 -362.060547 -8.003180 23.900608 -65.914742 499.765686
[Rear_Toe3_01]
18 -153.359680 -308.780914 -362.060852 4.079409 27.575666 -108.408890 499.952881
19 -153.359680 -308.780914 -362.060852 4.093779 26.057522 -108.022141 499.952881
20 -153.359680 -308.780914 -362.060852 4.096704 24.539602 -107.640678 499.952881
[planeLockWeightCenter]
18 1000.000488 0.000305 -0.000168 -0.011814 -0.004373 -0.000015 1000.000488
19 1000.000488 0.000305 -0.000160 -0.011814 -0.004373 -0.000015 1000.000488
20 1000.000488 0.000305 -0.000152 -0.011814 -0.004373 -0.000015 1000.000488
[Rear_Toe1_02]
18 379.707825 0.194073 0.000477 -0.002637 -33.505966 -0.002637 379.707855
19 379.707825 0.194073 0.000477 -0.002640 -33.256588 -0.002640 379.707855
20 379.707825 0.194073 0.000477 -0.002643 -33.007183 -0.002643 379.707855
[Rear_Toe1_03]
18 500.129700 0.165701 0.000119 0.004181 79.589767 0.002425 500.129761
19 500.129700 0.165701 0.000119 -0.009023 83.883972 -0.012524 500.129761
20 500.129700 0.165701 0.000119 -0.025491 87.582001 -0.028988 500.129761
[Rear_Toe2_02]
18 340.494507 0.000238 -0.000954 0.001228 -55.871250 0.001228 340.494507
19 340.494507 0.000238 -0.000954 0.001231 -54.782368 0.001231 340.494507
20 340.494507 0.000238 -0.000954 0.001236 -53.591110 0.001236 340.494507
[Rear_Toe2_03]
18 433.103577 0.000000 0.000238 0.003518 51.029549 0.003518 433.103546
19 433.103577 0.000000 0.000238 0.003407 49.692398 0.003407 433.103546
20 433.103577 0.000000 0.000238 0.003302 48.355061 0.003302 433.103546
[Rear_Toe3_02]
18 340.494141 -0.000358 -0.000477 -0.002414 -58.530090 -0.002414 340.494171
19 340.494141 -0.000358 -0.000477 -0.002415 -58.293957 -0.002415 340.494171
20 340.494141 -0.000358 -0.000477 -0.002416 -58.057789 -0.002416 340.494171
[Rear_Toe3_03]
18 433.103577 0.001431 -0.000238 -0.000037 54.274208 -0.003711 433.103546
19 433.103577 0.001431 -0.000238 -0.000021 53.982838 -0.003697 433.103546
20 433.103577 0.001431 -0.000238 -0.000005 53.691456 -0.003685 433.103546
[Back_Bone]
18 1312.175781 -701.934692 0.000954 2.790756 -1.457651 -85.682381 1488.125488
19 1312.175781 -701.934692 0.000954 2.790756 -1.457651 -85.682373 1488.125488
20 1312.175781 -701.934692 0.000954 2.790756 -1.457651 -85.682373 1488.125488
[Head]
18 1406.159424 809.709290 0.001431 -1.623609 2.697531 7.613082 1622.625488
19 1406.159424 809.709290 0.001431 -1.623609 2.697531 7.613082 1622.625488
20 1406.159424 809.709290 0.001431 -1.623609 2.697531 7.613082 1622.625488
[Motor_Bone]
18 1158.364380 -417.834747 0.000477 3.394448 -1.301977 -115.970810 1231.419434
19 1158.364380 -417.834747 0.000477 3.394448 -1.301977 -115.970810 1231.419434
20 1158.364380 -417.834747 0.000477 3.394448 -1.301977 -115.970810 1231.419434
[Ping_Mechanism]
18 1331.918335 -506.867340 -51.164131 0.000103 -0.000053 82.120995 1426.022095
19 1300.958618 -488.824799 -47.774891 0.000103 -0.000053 82.120995 1390.584595
20 1268.889160 -469.258392 -43.552013 0.000103 -0.000053 82.120995 1353.580444
[BN_LookIK]
18 193.241119 1380.371704 -0.002861 0.000000 89.965736 -31.038179 1393.832153
19 193.241119 1380.371704 -0.002861 0.000000 89.965736 -31.038179 1393.832153
20 193.241119 1380.371704 -0.002861 0.000000 89.965736 -31.038179 1393.832153
[bottomMouth]
18 -435.092926 615.759399 -0.000954 -0.000022 0.000016 73.527184 753.966492
19 -435.092926 615.759399 -0.000954 -0.000022 0.000016 73.527184 753.966492
20 -435.092926 615.759399 -0.000954 -0.000022 0.000016 73.527184 753.966492
[L_Mouth01]
18 554.440979 7.658243 838.222046 150.204178 23.759130 109.605339 1005.027161
19 554.440979 7.658243 838.222046 150.204178 23.759130 109.605339 1005.027161
20 554.440979 7.658243 838.222046 150.204178 23.759130 109.605339 1005.027161
[L_mouthFront]
18 551.629089 934.514771 339.150421 0.000081 2.804060 79.119301 1136.941284
19 551.629089 934.514771 339.150421 0.000081 2.804060 79.119301 1136.941284
20 551.629089 934.514771 339.150421 0.000081 2.804060 79.119301 1136.941284
[mouthGun]
18 55.332661 1627.420898 0.000000 0.000023 0.000009 -11.038128 1628.361328
19 55.332661 1627.420898 0.000000 0.000023 0.000009 -11.038128 1628.361328
20 55.332661 1627.420898 0.000000 0.000023 0.000009 -11.038128 1628.361328
[R_Mouth01]
18 554.442383 7.659197 -838.223938 29.795891 -23.759109 109.605331 1005.029541
19 554.442383 7.659197 -838.223938 29.795891 -23.759109 109.605331 1005.029541
20 554.442383 7.659197 -838.223938 29.795891 -23.759109 109.605331 1005.029541
[R_mouthFront]
18 551.629089 934.514282 -339.151367 0.000029 -2.803930 79.119133 1136.941162
19 551.629089 934.514282 -339.151367 0.000029 -2.803930 79.119133 1136.941162
20 551.629089 934.514282 -339.151367 0.000029 -2.803930 79.119133 1136.941162
[TopMouth]
18 461.269867 -56.106091 -0.008583 -0.000059 -0.000268 92.025169 464.669525
19 461.269867 -56.106091 -0.008583 -0.000059 -0.000268 92.025169 464.669525
20 461.269867 -56.106091 -0.008583 -0.000059 -0.000268 92.025169 464.669525
[weapon_bone]
18 -987.239868 1448.372803 0.001431 0.000000 89.965736 -31.038221 1752.833740
19 -987.239868 1448.372803 0.001431 0.000000 89.965736 -31.038221 1752.833740
20 -987.239868 1448.372803 0.001431 0.000000 89.965736 -31.038221 1752.833740
